# xmcd
#
# Track frame offsets:
#	150
#	20905
#	39166
#	53133
#	72438
#	88283
#	104871
#	120156
#	136746
#	153446
#	170246
#	185018
#
# Disc length: 2697 seconds
#
# Revision: 0
# Processed by: cddbd v1.5.2PL0 Copyright (c) Steve Scherf et al.
# Submitted via: audiograbber 1.83.01
#
DISCID=ab0a870c
DTITLE=Bellamy Brothers - Angels and Outlaws (2005)
DYEAR=2005
DGENRE=Country
TTITLE0=You Ain't Just Whistling Dixie (with Alan Jackson)
TTITLE1=Old Hippie (with Montgromery Gentry)
TTITLE2=Let Your Love Flow (with Hal Ketchum and Lisa Brokop)
TTITLE3=Guardian Angel (with Willie Nelson)
TTITLE4=If I Said You Had A Beautiful Body (Would You Hold It Again) (with Doll
TTITLE4=y Parton)
TTITLE5=Redneck Girl (with Pat Green)
TTITLE6=Dancin Cowboys (with Trini Triggs)
TTITLE7=Sugar Daddy (with George Jones
TTITLE8=Crazy From The Heart (with Chris Hillman, Herb Pedersen and Rhonda Vincen
TTITLE8=t)
TTITLE9=Reggae Cowboy (with Tanya Tucker and David Alan Coe)
TTITLE10=Kids Of The Baby Boom (with Charlie Daniels and Bobby Bare)
TTITLE11=Alligator Alley (with John Anderson)
EXTD=
EXTT0=
EXTT1=
EXTT2=
EXTT3=
EXTT4=
EXTT5=
EXTT6=
EXTT7=
EXTT8=
EXTT9=
EXTT10=
EXTT11=
PLAYORDER=
